# WaveFront *.obj file (generated by Cinema 4D)

mtllib ./WINDOW_01.mtl

v 10.050639 -8.399286 -0.002828
v 9.920111 -8.522758 -0.002828
v 10.050639 -8.522758 -0.002828
v 10.050639 -8.113536 -0.002828
v 9.620250 -8.522758 -0.002828
v 9.768416 -8.522758 -0.002828
v 10.050639 -8.254647 -0.002828
v 10.050639 -7.831314 -0.002828
v 9.320389 -8.522758 -0.002828
v 9.468555 -8.522758 -0.002828
v 10.050639 -7.972425 -0.002828
v 10.050639 -7.549091 -0.002828
v 9.020527 -8.522758 -0.002828
v 9.168694 -8.522758 -0.002828
v 10.050639 -7.686675 -0.002828
v 10.050639 -7.263341 -0.002828
v 8.720666 -8.522758 -0.002828
v 8.868833 -8.522758 -0.002828
v 10.050639 -7.404452 -0.002828
v 10.050639 -8.399286 0.097172
v 9.920111 -8.522758 0.097172
v 10.050639 -8.522758 0.097172
v 10.050639 -8.113536 0.097172
v 9.620250 -8.522758 0.097172
v 9.768416 -8.522758 0.097172
v 10.050639 -8.254647 0.097172
v 10.050639 -7.831314 0.097172
v 9.320389 -8.522758 0.097172
v 9.468555 -8.522758 0.097172
v 10.050639 -7.972425 0.097172
v 10.050639 -7.549091 0.097172
v 9.020527 -8.522758 0.097172
v 9.168694 -8.522758 0.097172
v 10.050639 -7.686675 0.097172
v 10.050639 -7.263341 0.097172
v 8.720666 -8.522758 0.097172
v 8.868833 -8.522758 0.097172
v 10.050639 -7.404452 0.097172
# 38 vertices

vn -0.687200 0.726468 0.000000
vn 0.000000 -1.000000 0.000000
vn 1.000000 0.000000 0.000000
vn -0.689062 0.724703 0.000000
vn 0.688749 -0.724999 0.000000
vn -0.687550 0.726137 0.000000
vn 0.687011 -0.726647 0.000000
vn -0.686916 0.726737 0.000000
vn 0.687986 -0.725724 0.000000
vn -0.687584 0.726104 0.000000
vn 0.687324 -0.726351 0.000000
vn 0.000000 0.000000 1.000000
# 12 normals

vt 0.817410 0.051639 0.000000
vt 0.817086 0.054139 0.000000
vt 0.821577 0.054721 0.000000
vt 0.821901 0.052221 0.000000
vt 0.823060 0.056760 0.000000
vt 0.818916 0.056656 0.000000
vt 0.820399 0.058695 0.000000
vt 0.816878 0.058139 0.000000
vt 0.815047 0.055621 0.000000
vt 0.889237 0.046815 0.000000
vt 0.886716 0.046815 0.000000
vt 0.886716 0.061785 0.000000
vt 0.889237 0.061785 0.000000
vt 0.884889 0.063522 0.000000
vt 0.884143 0.059079 0.000000
vt 0.882316 0.060816 0.000000
vt 0.881622 0.059080 0.000000
vt 0.884138 0.049266 0.000000
vt 0.881618 0.049267 0.000000
vt 0.882401 0.047440 0.000000
vt 0.884979 0.044989 0.000000
vt 0.199027 0.063207 0.000000
vt 0.196507 0.063207 0.000000
vt 0.196507 0.088557 0.000000
vt 0.199027 0.088557 0.000000
vt 0.194676 0.090290 0.000000
vt 0.193939 0.085845 0.000000
vt 0.192108 0.087578 0.000000
vt 0.191418 0.085847 0.000000
vt 0.193924 0.065653 0.000000
vt 0.191403 0.065655 0.000000
vt 0.192191 0.063823 0.000000
vt 0.194773 0.061377 0.000000
vt 0.862903 0.025731 0.000000
vt 0.860382 0.025731 0.000000
vt 0.860382 0.061460 0.000000
vt 0.862903 0.061460 0.000000
vt 0.858550 0.063192 0.000000
vt 0.857817 0.058746 0.000000
vt 0.855985 0.060477 0.000000
vt 0.855296 0.058742 0.000000
vt 0.857862 0.028113 0.000000
vt 0.855341 0.028109 0.000000
vt 0.856130 0.026281 0.000000
vt 0.858651 0.023899 0.000000
vt 0.851221 0.025736 0.000000
vt 0.848701 0.025736 0.000000
vt 0.848701 0.071906 0.000000
vt 0.851221 0.071906 0.000000
vt 0.846870 0.073640 0.000000
vt 0.846133 0.069195 0.000000
vt 0.844302 0.070928 0.000000
vt 0.843612 0.069196 0.000000
vt 0.846118 0.028182 0.000000
vt 0.843597 0.028183 0.000000
vt 0.844385 0.026351 0.000000
vt 0.846968 0.023906 0.000000
vt 0.000000 1.000000 0.000000
# 58 texture coordinates

o Extrusi?n_5
usemtl default
f 2/4/1 21/3/1 20/2/1 1/1/1
f 3/7/2 22/6/2 21/3/2 2/5/2
f 1/9/3 20/2/3 22/6/3 3/8/3
f 5/13/4 24/12/4 23/11/4 4/10/4
f 6/16/2 25/15/2 24/12/2 5/14/2
f 7/19/5 26/18/5 25/15/5 6/17/5
f 4/21/3 23/11/3 26/18/3 7/20/3
f 9/25/6 28/24/6 27/23/6 8/22/6
f 10/28/2 29/27/2 28/24/2 9/26/2
f 11/31/7 30/30/7 29/27/7 10/29/7
f 8/33/3 27/23/3 30/30/3 11/32/3
f 13/37/8 32/36/8 31/35/8 12/34/8
f 14/40/2 33/39/2 32/36/2 13/38/2
f 15/43/9 34/42/9 33/39/9 14/41/9
f 12/45/3 31/35/3 34/42/3 15/44/3
f 17/49/10 36/48/10 35/47/10 16/46/10
f 18/52/2 37/51/2 36/48/2 17/50/2
f 19/55/11 38/54/11 37/51/11 18/53/11
f 16/57/3 35/47/3 38/54/3 19/56/3
f 20/2/12 21/3/12 22/6/12
f 23/11/12 24/12/12 25/15/12 26/18/12
f 27/23/12 28/24/12 29/27/12 30/30/12
f 31/35/12 32/36/12 33/39/12 34/42/12
f 35/47/12 36/48/12 37/51/12 38/54/12

v -10.354027 8.819797 0.000000
v 10.354027 8.819797 0.000000
v 10.354027 -8.819797 0.000000
v -10.354027 -8.819797 0.000000
v -10.085916 5.644797 0.000000
v 9.881305 5.644797 0.000000
v 9.881305 -6.505928 0.000000
v -10.085916 -6.505928 0.000000
v -10.354027 8.819797 -1.000000
v 10.354027 8.819797 -1.000000
v 10.354027 -8.819797 -1.000000
v -10.354027 -8.819797 -1.000000
v -10.085916 5.644797 -1.000000
v 9.881305 5.644797 -1.000000
v 9.881305 -6.505928 -1.000000
v -10.085916 -6.505928 -1.000000
v -9.757833 -8.520289 0.000000
v 2.529417 -8.520289 0.000000
v -9.757833 -6.995230 0.000000
v 8.618361 -8.520289 0.000000
v 2.779889 -8.520289 0.000000
v 2.779889 -6.995230 0.000000
v 2.529417 -6.995230 -0.000000
v 8.618361 -6.995230 0.000000
v -10.103555 8.537575 0.000000
v 10.054166 8.537575 0.000000
v -10.103555 7.168444 0.000000
v 10.054166 7.168444 0.000000
v 2.779889 -6.995230 -0.117418
v 8.618361 -6.995230 -0.117418
v 8.618361 -8.520289 -0.117418
v 2.779889 -8.520289 -0.117418
v -9.757833 -6.995230 -0.117418
v 2.529417 -6.995230 -0.117418
v 2.529417 -8.520289 -0.117418
v -9.757833 -8.520289 -0.117418
v -10.103555 8.537575 -0.117418
v 10.054166 8.537575 -0.117418
v 10.054166 7.168444 -0.117418
v -10.103555 7.168444 -0.117418
# 40 vertices

vn 0.000000 0.000000 -1.000000
vn 0.000000 1.000000 0.000000
vn -1.000000 0.000000 0.000000
vn -0.000000 -0.000000 1.000000
vn -0.000000 -0.000000 1.000000
vn -0.000000 -0.000000 1.000000
vn -0.000000 0.000000 1.000000
vn -0.000000 0.000000 1.000000
vn -0.000000 0.000000 1.000000
vn -0.000000 0.000000 1.000000
vn -0.000000 -0.000000 1.000000
vn 0.000000 0.000000 1.000000
vn 0.000000 -0.000000 1.000000
vn -0.000000 0.000000 1.000000
vn -0.000000 -0.000000 1.000000
# 15 normals

vt 0.033488 0.032578 0.000000
vt 0.034813 0.616945 0.000000
vt 0.043080 0.608467 0.000000
vt 0.987000 0.013000 0.000000
vt 0.906968 0.019758 0.000000
vt 0.906968 0.523071 0.000000
vt 0.013000 0.013000 0.000000
vt 0.013000 0.634879 0.000000
vt 0.539610 0.629809 0.000000
vt 0.519327 0.610063 0.000000
vt 0.534947 0.017469 0.000000
vt 0.513625 0.036012 0.000000
vt 0.115983 0.039969 0.000000
vt 0.120190 0.601961 0.000000
vt 0.141765 0.583473 0.000000
vt 0.455655 0.597084 0.000000
vt 0.432913 0.580096 0.000000
vt 0.452007 0.042912 0.000000
vt 0.430718 0.061674 0.000000
vt 0.139426 0.056059 0.000000
vt 0.656456 0.026865 0.000000
vt 0.653496 0.026865 0.000000
vt 0.653496 0.174036 0.000000
vt 0.656456 0.174036 0.000000
vt 0.656456 0.176995 0.000000
vt 0.694898 0.176995 0.000000
vt 0.694898 0.174036 0.000000
vt 0.697857 0.174036 0.000000
vt 0.697857 0.026865 0.000000
vt 0.694898 0.026865 0.000000
vt 0.694898 0.023906 0.000000
vt 0.656456 0.023906 0.000000
vt 0.606737 0.026865 0.000000
vt 0.603777 0.026865 0.000000
vt 0.603777 0.336590 0.000000
vt 0.606737 0.336590 0.000000
vt 0.606737 0.339549 0.000000
vt 0.645179 0.339549 0.000000
vt 0.645179 0.336590 0.000000
vt 0.648139 0.336590 0.000000
vt 0.648139 0.026865 0.000000
vt 0.645179 0.026865 0.000000
vt 0.645179 0.023906 0.000000
vt 0.606737 0.023906 0.000000
vt 0.150493 0.064111 0.000000
vt 0.147533 0.064111 0.000000
vt 0.147533 0.572226 0.000000
vt 0.150493 0.572226 0.000000
vt 0.150493 0.575186 0.000000
vt 0.185005 0.575186 0.000000
vt 0.185005 0.572226 0.000000
vt 0.187964 0.572226 0.000000
vt 0.187964 0.064111 0.000000
vt 0.185005 0.064111 0.000000
vt 0.185005 0.061152 0.000000
vt 0.150493 0.061152 0.000000
vt 0.508308 0.393661 0.000000
vt 0.041642 0.039284 0.000000
vt 0.073859 0.039430 0.000000
vt 0.077703 0.608014 0.000000
vt 0.468770 0.393903 0.000000
vt 0.466376 0.051950 0.000000
vt 0.508400 0.400689 0.000000
vt 0.510186 0.562650 0.000000
vt 0.469561 0.562433 0.000000
vt 0.468787 0.400634 0.000000
vt 0.542360 0.013000 0.000000
vt 0.600685 0.019758 0.000000
vt 0.542360 0.534987 0.000000
vt 0.600685 0.523071 0.000000
vt 0.987000 0.534987 0.000000
vt 0.505030 0.052053 0.000000
# 72 texture coordinates

o Booleano_1
usemtl default
f 64/61/12 40/60/12 39/59/12
f 52/64/13 51/63/13 47/62/13
f 48/66/14 47/65/14 39/59/14
f 49/67/3 48/66/3 40/60/3
f 50/69/2 49/67/2 41/68/2
f 47/65/15 50/69/15 42/70/15
f 52/73/2 44/72/2 43/71/2
f 53/75/15 45/74/15 44/72/15
f 54/77/14 46/76/14 45/74/14
f 51/78/3 43/71/3 46/76/3
f 62/81/2 60/80/2 67/79/2
f 58/84/15 62/83/15 68/82/15
f 59/87/14 58/86/14 69/85/14
f 60/90/3 59/89/3 70/88/3
f 61/93/2 57/92/2 71/91/2
f 56/96/15 61/95/15 72/94/15
f 55/99/14 56/98/14 73/97/14
f 57/102/3 55/101/3 74/100/3
f 64/105/2 63/104/2 75/103/2
f 66/108/15 64/107/15 76/106/15
f 65/111/14 66/110/14 77/109/14
f 63/114/3 65/113/3 78/112/3
f 67/79/12 70/88/12 69/85/12
f 71/91/12 74/100/12 73/97/12
f 75/103/12 78/112/12 77/109/12
f 40/60/14 48/66/14 39/59/14
f 41/68/3 49/67/3 40/60/3
f 42/70/2 50/69/2 41/68/2
f 39/59/15 47/65/15 42/70/15
f 51/78/2 52/73/2 43/71/2
f 52/73/15 53/75/15 44/72/15
f 53/75/14 54/77/14 45/74/14
f 54/77/3 51/78/3 46/76/3
f 68/82/2 62/81/2 67/79/2
f 69/85/15 58/84/15 68/82/15
f 70/88/14 59/87/14 69/85/14
f 67/79/3 60/90/3 70/88/3
f 72/94/2 61/93/2 71/91/2
f 73/97/15 56/96/15 72/94/15
f 74/100/14 55/99/14 73/97/14
f 71/91/3 57/102/3 74/100/3
f 76/106/2 64/105/2 75/103/2
f 77/109/15 66/108/15 76/106/15
f 78/112/14 65/111/14 77/109/14
f 75/103/3 63/114/3 78/112/3
f 68/82/12 67/79/12 69/85/12
f 72/94/12 71/91/12 73/97/12
f 76/106/12 75/103/12 77/109/12
f 41/68/16 40/60/12 44/72/12
f 42/70/18 41/68/16 56/115/17
f 43/71/12 39/59/12 42/70/18
f 65/117/12 63/116/12 39/59/12
f 44/72/12 66/118/12 65/117/12
f 64/61/12 66/118/12 40/60/12
f 61/119/21 45/74/20 46/76/19
f 57/120/22 46/76/19 42/70/18
f 61/119/21 56/115/17 59/121/23
f 58/122/24 59/121/23 41/68/16
f 58/122/24 41/68/16 45/74/20
f 60/124/26 62/123/25 45/74/20
f 43/71/12 65/117/12 39/59/12
f 66/118/12 44/72/12 40/60/12
f 59/121/23 56/115/17 41/68/16
f 61/119/21 60/124/26 45/74/20
f 51/63/13 54/126/13 50/125/13
f 53/128/13 49/127/13 50/125/13
f 52/64/13 48/129/13 49/127/13
f 45/74/20 41/68/16 44/72/12
f 55/130/27 42/70/18 56/115/17
f 46/76/19 43/71/12 42/70/18
f 43/71/12 44/72/12 65/117/12
f 57/120/22 61/119/21 46/76/19
f 55/130/27 57/120/22 42/70/18
f 60/124/26 61/119/21 59/121/23
f 62/123/25 58/122/24 45/74/20
f 47/62/13 51/63/13 50/125/13
f 54/126/13 53/128/13 50/125/13
f 53/128/13 52/64/13 49/127/13
f 63/116/12 64/61/12 39/59/12
f 48/129/13 52/64/13 47/62/13

v 9.581444 8.138936 0.056985
v 9.489722 8.230658 0.056985
v 9.256889 7.994297 0.056985
v 9.020527 8.230658 0.056985
v 8.928805 8.138936 0.056985
v 9.165166 7.906102 0.056985
v 8.928805 7.669741 0.056985
v 9.020527 7.578019 0.056985
v 9.256889 7.814380 0.056985
v 9.489722 7.578019 0.056985
v 9.581444 7.669741 0.056985
v 9.345083 7.906102 0.056985
v 6.445250 7.708547 0.056985
v 6.914444 7.708547 0.056985
v 6.914444 7.558264 0.056985
v 6.445250 7.558264 0.056985
v 7.574139 8.216547 0.056985
v 7.574139 7.532158 0.056985
v 8.247944 7.532158 0.056985
v 8.247944 8.216547 0.056985
v 8.166805 7.616825 0.056985
v 7.655277 7.616825 0.056985
v 7.655277 8.015464 0.056985
v 8.166805 8.015464 0.056985
v 9.581444 8.138936 0.156985
v 9.489722 8.230658 0.156985
v 9.256889 7.994297 0.156985
v 9.020527 8.230658 0.156985
v 8.928805 8.138936 0.156985
v 9.165166 7.906102 0.156985
v 8.928805 7.669741 0.156985
v 9.020527 7.578019 0.156985
v 9.256889 7.814380 0.156985
v 9.489722 7.578019 0.156985
v 9.581444 7.669741 0.156985
v 9.345083 7.906102 0.156985
v 6.445250 7.708547 0.156985
v 6.914444 7.708547 0.156985
v 6.914444 7.558264 0.156985
v 6.445250 7.558264 0.156985
v 7.574139 8.216547 0.156985
v 7.574139 7.532158 0.156985
v 8.247944 7.532158 0.156985
v 8.247944 8.216547 0.156985
v 8.166805 7.616825 0.156985
v 7.655277 7.616825 0.156985
v 7.655277 8.015464 0.156985
v 8.166805 8.015464 0.156985
# 48 vertices

vn 0.707107 0.707107 0.000000
vn -0.712403 0.701770 0.000000
vn -0.707107 0.707107 0.000000
vn -0.701770 -0.712403 0.000000
vn -0.707107 -0.707107 0.000000
vn 0.707107 -0.707107 0.000000
vn -0.712403 -0.701770 0.000000
vn 0.701770 -0.712403 0.000000
# 8 normals

vt 0.875175 0.034392 0.000000
vt 0.872952 0.032080 0.000000
vt 0.866994 0.038038 0.000000
vt 0.836781 0.026426 0.000000
vt 0.834736 0.028561 0.000000
vt 0.834736 0.038609 0.000000
vt 0.053541 0.071923 0.000000
vt 0.051020 0.071923 0.000000
vt 0.051020 0.075192 0.000000
vt 0.053541 0.075192 0.000000
vt 0.051020 0.083556 0.000000
vt 0.047692 0.043474 0.000000
vt 0.045171 0.043474 0.000000
vt 0.045171 0.051900 0.000000
vt 0.047692 0.051900 0.000000
vt 0.045171 0.055170 0.000000
vt 0.047692 0.055170 0.000000
vt 0.045171 0.063533 0.000000
vt 0.047692 0.063533 0.000000
vt 0.045171 0.071959 0.000000
vt 0.047692 0.071959 0.000000
vt 0.045171 0.075229 0.000000
vt 0.047692 0.075229 0.000000
vt 0.045171 0.083654 0.000000
vt 0.053541 0.043501 0.000000
vt 0.051020 0.043501 0.000000
vt 0.051020 0.051864 0.000000
vt 0.053541 0.051864 0.000000
vt 0.051020 0.055134 0.000000
vt 0.053541 0.055134 0.000000
vt 0.051020 0.063560 0.000000
vt 0.053541 0.063560 0.000000
vt 0.866994 0.047011 0.000000
vt 0.866994 0.058838 0.000000
vt 0.869515 0.058838 0.000000
vt 0.869515 0.061358 0.000000
vt 0.873303 0.061358 0.000000
vt 0.873303 0.058838 0.000000
vt 0.875824 0.058838 0.000000
vt 0.875824 0.047011 0.000000
vt 0.873303 0.047011 0.000000
vt 0.873303 0.044490 0.000000
vt 0.869515 0.044490 0.000000
vt 0.869515 0.047011 0.000000
vt 0.817276 0.043678 0.000000
vt 0.819796 0.043678 0.000000
vt 0.819796 0.026426 0.000000
vt 0.819796 0.023906 0.000000
vt 0.839302 0.026426 0.000000
vt 0.836781 0.043678 0.000000
vt 0.836781 0.046198 0.000000
vt 0.889541 0.026180 0.000000
vt 0.887468 0.023906 0.000000
vt 0.887467 0.040836 0.000000
vt 0.889840 0.038837 0.000000
vt 0.901386 0.040905 0.000000
vt 0.899315 0.038633 0.000000
vt 0.901386 0.023980 0.000000
vt 0.899000 0.025963 0.000000
vt 0.053541 0.083556 0.000000
vt 0.047692 0.083654 0.000000
vt 0.817276 0.026426 0.000000
vt 0.836781 0.023906 0.000000
vt 0.839302 0.043678 0.000000
vt 0.819796 0.046198 0.000000
vt 0.877488 0.032080 0.000000
vt 0.881133 0.040350 0.000000
vt 0.881133 0.023899 0.000000
vt 0.875175 0.029857 0.000000
vt 0.869306 0.023899 0.000000
vt 0.821842 0.028561 0.000000
vt 0.821842 0.038609 0.000000
vt 0.883445 0.038038 0.000000
vt 0.883445 0.026211 0.000000
vt 0.866994 0.026211 0.000000
vt 0.869306 0.040350 0.000000
# 76 texture coordinates

o Extrusi?n_3
usemtl default
f 113/133/12 114/132/12 111/131/12
f 126/136/12 123/135/12 121/134/12
f 104/139/28 103/138/28 79/137/28
f 105/141/29 104/139/29 80/140/29
f 106/144/28 105/143/28 81/142/28
f 107/146/30 106/144/30 82/145/30
f 108/148/31 107/146/31 83/147/31
f 109/150/30 108/148/30 84/149/30
f 110/152/32 109/150/32 85/151/32
f 111/154/33 110/152/33 86/153/33
f 112/157/34 111/156/34 87/155/34
f 113/159/33 112/157/33 88/158/33
f 114/161/28 113/159/28 89/160/28
f 103/138/35 114/161/35 90/162/35
f 116/165/14 92/164/14 91/163/14
f 117/168/3 93/167/3 92/166/3
f 118/171/2 94/170/2 93/169/2
f 115/174/15 91/173/15 94/172/15
f 120/177/15 119/176/15 95/175/15
f 121/134/2 120/177/2 96/178/2
f 122/180/3 121/134/3 97/179/3
f 119/176/14 122/180/14 98/181/14
f 124/184/14 123/183/14 99/182/14
f 125/186/3 124/184/3 100/185/3
f 126/188/2 125/186/2 101/187/2
f 123/183/15 126/188/15 102/189/15
f 117/168/12 116/165/12 115/174/12
f 80/140/28 104/139/28 79/137/28
f 81/190/29 105/141/29 80/140/29
f 82/145/28 106/144/28 81/142/28
f 83/147/30 107/146/30 82/145/30
f 84/149/31 108/148/31 83/147/31
f 85/151/30 109/150/30 84/149/30
f 86/153/32 110/152/32 85/151/32
f 87/191/33 111/154/33 86/153/33
f 88/158/34 112/157/34 87/155/34
f 89/160/33 113/159/33 88/158/33
f 90/162/28 114/161/28 89/160/28
f 79/137/35 103/138/35 90/162/35
f 115/174/14 116/165/14 91/163/14
f 116/165/3 117/168/3 92/166/3
f 117/168/2 118/171/2 93/169/2
f 118/171/15 115/174/15 94/172/15
f 96/192/15 120/177/15 95/175/15
f 97/193/2 121/134/2 96/178/2
f 98/194/3 122/180/3 97/179/3
f 95/195/14 119/176/14 98/181/14
f 100/185/14 124/184/14 99/182/14
f 101/187/3 125/186/3 100/185/3
f 102/189/2 126/188/2 101/187/2
f 99/182/15 123/183/15 102/189/15
f 118/171/12 117/168/12 115/174/12
f 110/197/12 111/131/12 108/196/12
f 108/196/12 105/199/12 106/198/12
f 104/200/12 105/199/12 114/132/12
f 114/132/12 105/199/12 108/196/12
f 123/135/12 124/201/12 120/177/12
f 125/202/12 119/176/12 120/177/12
f 125/202/12 126/136/12 122/180/12
f 109/203/12 110/197/12 108/196/12
f 107/204/12 108/196/12 106/198/12
f 103/205/12 104/200/12 114/132/12
f 111/131/12 114/132/12 108/196/12
f 121/134/12 123/135/12 120/177/12
f 124/201/12 125/202/12 120/177/12
f 119/176/12 125/202/12 122/180/12
f 112/206/12 113/133/12 111/131/12
f 122/180/12 126/136/12 121/134/12

v 8.699500 8.378825 -0.139001
v 9.814277 8.378825 -0.139001
v 9.814277 7.408333 -0.139001
v 8.699500 7.408333 -0.139001
v 7.355416 8.378825 -0.139001
v 8.470194 8.378825 -0.139001
v 8.470194 7.408333 -0.139001
v 7.355416 7.408333 -0.139001
v 6.124222 8.378825 -0.139001
v 7.239000 8.378825 -0.139001
v 7.239000 7.408333 -0.139001
v 6.124222 7.408333 -0.139001
v 8.699500 8.378825 0.060999
v 9.814277 8.378825 0.060999
v 9.814277 7.408333 0.060999
v 8.699500 7.408333 0.060999
v 7.355416 8.378825 0.060999
v 8.470194 8.378825 0.060999
v 8.470194 7.408333 0.060999
v 7.355416 7.408333 0.060999
v 6.124222 8.378825 0.060999
v 7.239000 8.378825 0.060999
v 7.239000 7.408333 0.060999
v 6.124222 7.408333 0.060999
# 24 vertices

# 0 normal

vt 0.737761 0.057047 0.000000
vt 0.737761 0.028947 0.000000
vt 0.732719 0.028947 0.000000
vt 0.732719 0.057047 0.000000
vt 0.732719 0.023906 0.000000
vt 0.708256 0.023906 0.000000
vt 0.708256 0.028947 0.000000
vt 0.703215 0.028947 0.000000
vt 0.703215 0.057047 0.000000
vt 0.708256 0.057047 0.000000
vt 0.708256 0.062089 0.000000
vt 0.732719 0.062089 0.000000
vt 0.775781 0.057047 0.000000
vt 0.775781 0.028947 0.000000
vt 0.770739 0.028947 0.000000
vt 0.770739 0.057047 0.000000
vt 0.770739 0.023906 0.000000
vt 0.746276 0.023906 0.000000
vt 0.746276 0.028947 0.000000
vt 0.741235 0.028947 0.000000
vt 0.741235 0.057047 0.000000
vt 0.746276 0.057047 0.000000
vt 0.746276 0.062089 0.000000
vt 0.770739 0.062089 0.000000
vt 0.813801 0.057047 0.000000
vt 0.813801 0.028947 0.000000
vt 0.808760 0.028947 0.000000
vt 0.808760 0.057047 0.000000
vt 0.808760 0.023906 0.000000
vt 0.784297 0.023906 0.000000
vt 0.784297 0.028947 0.000000
vt 0.779255 0.028947 0.000000
vt 0.779255 0.057047 0.000000
vt 0.784297 0.057047 0.000000
vt 0.784297 0.062089 0.000000
vt 0.808760 0.062089 0.000000
# 36 texture coordinates

o Extrusi?n_4
usemtl default
f 139/210/14 140/209/14 128/208/14 127/207/14
f 140/209/3 141/213/3 129/212/3 128/211/3
f 141/213/2 142/216/2 130/215/2 129/214/2
f 142/216/15 139/210/15 127/218/15 130/217/15
f 143/222/14 144/221/14 132/220/14 131/219/14
f 144/221/3 145/225/3 133/224/3 132/223/3
f 145/225/2 146/228/2 134/227/2 133/226/2
f 146/228/15 143/222/15 131/230/15 134/229/15
f 147/234/14 148/233/14 136/232/14 135/231/14
f 148/233/3 149/237/3 137/236/3 136/235/3
f 149/237/2 150/240/2 138/239/2 137/238/2
f 150/240/15 147/234/15 135/242/15 138/241/15
f 142/216/12 141/213/12 140/209/12 139/210/12
f 146/228/12 145/225/12 144/221/12 143/222/12
f 150/240/12 149/237/12 148/233/12 147/234/12

